<?xml version="1.0" standalone="no"?>
<!DOCTYPE svg PUBLIC "-//W3C//DTD SVG 20010904//EN"
 "http://www.w3.org/TR/2001/REC-SVG-20010904/DTD/svg10.dtd">
<svg version="1.0" xmlns="http://www.w3.org/2000/svg"
 width="202.000000pt" height="286.000000pt" viewBox="0 0 202.000000 286.000000"
 preserveAspectRatio="xMidYMid meet">
<metadata>
Created by potrace 1.15, written by Peter Selinger 2001-2017
</metadata>
<g transform="translate(0.000000,286.000000) scale(0.100000,-0.100000)"
fill="#000000" stroke="none">
<path d="M964 2587 c-39 -33 -78 -51 -149 -72 -33 -9 -75 -25 -93 -36 -43 -25
-44 -25 -36 16 3 19 2 35 -3 35 -5 0 -30 -13 -56 -29 -54 -35 -85 -89 -94
-161 -5 -44 -8 -48 -24 -40 -33 18 -38 11 -22 -27 9 -22 18 -86 22 -153 4 -63
12 -124 18 -135 9 -16 8 -25 -3 -40 -32 -44 -5 -145 48 -175 37 -20 47 -5 14
21 -52 41 -73 120 -40 154 24 23 37 14 54 -38 29 -89 39 -72 15 28 -20 80 -19
97 3 93 14 -2 16 3 14 30 -3 30 -1 33 16 28 73 -24 135 -8 164 41 l21 35 13
-24 c15 -28 47 -52 82 -61 36 -9 118 20 141 49 l21 26 25 -31 c32 -37 83 -53
128 -40 48 14 50 12 42 -28 -4 -21 -7 -42 -8 -48 -1 -5 6 -9 16 -9 20 2 20 5
2 -75 -9 -35 -13 -66 -10 -69 5 -5 35 60 35 78 0 16 37 12 54 -6 25 -24 30
-61 12 -87 -29 -41 -41 -54 -63 -65 -31 -17 -33 -16 -33 17 0 48 -17 45 -24
-4 -6 -35 -15 -51 -48 -79 -59 -51 -132 -71 -258 -71 -176 1 -288 51 -312 140
-7 25 -15 40 -19 34 -12 -21 9 -81 41 -114 l31 -32 -48 0 c-97 1 -201 -11
-237 -28 -20 -9 -49 -33 -66 -51 -81 -93 3 -190 170 -196 68 -3 77 -5 91 -28
20 -32 18 -124 -3 -148 -27 -30 -78 -134 -78 -158 0 -16 10 -28 29 -38 25 -13
29 -22 35 -77 3 -34 6 -84 6 -110 0 -50 -35 -172 -66 -231 -23 -43 -27 -67
-14 -83 7 -9 8 -15 1 -19 -18 -11 -24 -92 -9 -123 12 -25 19 -28 58 -27 35 1
49 7 71 32 16 18 32 44 35 59 4 16 17 39 29 53 42 46 126 180 140 223 8 23 18
87 22 142 l8 100 50 16 c36 11 44 17 32 22 -10 4 -35 1 -57 -7 l-39 -13 15 28
c8 16 22 29 32 29 10 0 23 5 29 11 8 8 19 3 40 -20 16 -19 45 -36 68 -42 22
-6 49 -13 60 -15 24 -6 75 11 75 26 0 7 -12 9 -33 5 -37 -7 -139 18 -155 38
-6 7 -13 24 -17 37 -8 32 27 80 58 80 41 0 88 -38 110 -90 25 -55 36 -64 71
-50 22 8 28 2 78 -68 99 -139 118 -171 187 -308 74 -147 75 -148 11 -174 -27
-11 -39 -11 -73 1 -36 12 -47 24 -87 94 -79 137 -157 240 -246 324 -123 117
-141 103 -21 -16 72 -71 124 -136 195 -242 53 -80 100 -154 104 -163 4 -10 12
-18 17 -18 6 0 30 -20 54 -45 48 -48 86 -58 121 -32 15 11 17 22 12 53 -3 21
-7 59 -9 84 -6 84 -175 388 -274 491 l-34 36 40 26 c22 14 52 43 68 63 25 34
28 45 28 118 0 143 -74 306 -157 351 -47 25 -52 63 -13 89 23 15 26 15 45 -4
22 -22 51 -26 80 -10 13 7 21 5 31 -6 8 -10 21 -13 39 -9 20 4 38 -1 65 -19
59 -40 131 -30 154 21 44 96 -52 171 -146 113 -19 -11 -35 -15 -38 -10 -4 6
-19 10 -34 10 -40 0 -42 7 -15 47 29 44 30 77 4 121 -16 26 -18 37 -9 53 16
31 37 107 31 113 -3 4 -14 -2 -25 -11 -19 -17 -19 -17 -14 2 4 11 11 42 17 68
6 27 24 76 41 109 l31 61 -34 -7 -33 -6 3 120 c4 135 6 131 -69 105 -24 -9
-102 -20 -174 -24 -71 -5 -136 -10 -144 -12 -11 -3 -14 6 -13 41 3 65 -8 77
-44 47z m24 -54 c-3 -57 -2 -58 22 -56 14 2 90 9 170 16 89 8 157 20 175 29
l31 16 -4 -129 c-4 -112 -2 -129 11 -129 9 0 19 5 22 10 3 6 10 10 15 10 5 0
-2 -19 -15 -42 -13 -24 -31 -74 -40 -113 -8 -38 -18 -78 -21 -88 -5 -15 -2
-16 20 -7 l26 10 -16 -38 c-9 -20 -18 -42 -21 -49 -2 -6 -12 -14 -20 -17 -13
-5 -15 0 -9 34 5 32 3 40 -9 40 -23 0 -19 62 6 105 25 42 21 99 -12 152 -27
44 -67 63 -129 63 -43 0 -56 -5 -80 -28 l-28 -28 -38 28 c-49 34 -105 37 -154
7 -19 -12 -40 -29 -46 -37 -10 -14 -13 -13 -23 6 -40 74 -209 64 -239 -15 -22
-58 -23 -84 -4 -126 30 -68 35 -97 16 -97 -13 0 -15 -9 -12 -45 2 -36 0 -45
-13 -45 -27 0 -42 51 -48 170 -3 63 -10 121 -15 128 -5 9 -3 13 5 11 32 -4 39
2 39 34 0 61 21 111 64 152 l41 39 3 -29 c5 -45 16 -49 57 -20 21 14 64 32 94
41 81 22 127 43 152 70 12 13 24 24 27 24 2 0 2 -26 0 -57z m-223 -208 c40
-16 55 -46 55 -109 0 -29 -7 -53 -22 -72 -31 -41 -37 -44 -91 -44 -42 0 -54 5
-83 34 -27 27 -34 42 -34 74 0 64 15 91 62 112 52 24 68 24 113 5z m263 -11
c57 -40 66 -138 17 -184 -36 -34 -120 -40 -157 -10 -61 48 -58 152 6 191 38
23 103 25 134 3z m227 4 c53 -24 84 -108 61 -163 -17 -39 -47 -55 -104 -55
-66 0 -104 43 -115 129 -5 39 -2 47 23 73 32 31 87 38 135 16z m345 -578 c29
-29 26 -74 -6 -99 -33 -26 -60 -26 -101 -1 -25 15 -33 27 -33 49 0 59 97 94
140 51z m-1071 -124 c31 -8 69 -18 85 -21 26 -5 27 -7 13 -23 -24 -27 -27 -77
-7 -117 l18 -35 -25 -6 c-38 -10 -154 2 -199 20 -94 39 -89 138 11 182 38 17
38 17 104 0z m283 3 c24 -13 50 -72 42 -96 -12 -32 -83 -93 -108 -93 -34 0
-66 44 -66 90 0 34 25 81 55 102 15 11 53 10 77 -3z m228 -12 c0 -1 -4 -16 -9
-33 -8 -28 -6 -34 20 -53 22 -16 29 -30 29 -54 0 -47 -24 -75 -93 -108 -52
-24 -63 -26 -76 -15 -9 7 -44 24 -78 37 l-61 23 44 39 c47 41 84 105 84 144 0
22 4 23 70 23 39 0 70 -1 70 -3z m208 -71 c64 -59 112 -188 112 -303 0 -67 -2
-75 -32 -109 -27 -31 -98 -84 -112 -84 -2 0 -7 19 -11 42 -5 28 -17 50 -35 67
l-29 24 26 34 c15 19 28 52 31 78 6 54 -13 62 -21 9 -11 -69 -78 -130 -135
-125 -13 2 -34 -4 -47 -13 -22 -15 -24 -14 -30 4 -4 11 -15 25 -26 30 -14 8
-19 21 -19 55 0 39 3 45 21 45 28 0 122 45 144 69 17 20 17 20 45 -1 57 -41
118 6 105 81 -9 54 -37 78 -74 64 -26 -9 -30 -8 -39 12 -9 20 -6 26 26 47 41
27 43 26 100 -26z m-421 -210 l63 -21 0 -47 c0 -38 -4 -48 -20 -53 -46 -15
-65 -104 -30 -147 18 -24 19 -28 4 -58 -9 -17 -23 -34 -31 -37 -19 -7 -148 29
-221 63 l-54 24 38 67 c67 120 74 137 74 168 0 26 4 30 27 32 15 0 35 10 43
22 9 12 21 18 30 14 8 -3 43 -15 77 -27z m-85 -380 c60 -16 90 -20 97 -13 15
15 3 -136 -16 -198 -8 -27 -43 -91 -77 -142 -58 -88 -63 -93 -104 -99 -36 -5
-47 -2 -76 20 l-34 26 28 57 c48 97 73 205 65 281 -4 37 -11 76 -16 89 -8 21
-7 22 19 12 15 -6 66 -21 114 -33z"/>
</g>
</svg>
